HIERARCHY
ROOT Hips
{
	OFFSET 153.460495 90.984810 357.406311
	CHANNELS 6 Xposition Yposition Zposition Zrotation Yrotation Xrotation 
	JOINT LeftUpLeg
	{
		OFFSET 0.103456 1.857840 10.548501
		CHANNELS 3 Zrotation Yrotation Xrotation
		JOINT LeftLeg
		{
			OFFSET 43.499992 -0.000038 -0.000006
			CHANNELS 3 Zrotation Yrotation Xrotation
			JOINT LeftFoot
			{
				OFFSET 42.372196 0.000031 0.000002
				CHANNELS 3 Zrotation Yrotation Xrotation
				JOINT LeftToe
				{
					OFFSET 17.299974 -0.000010 -0.000017
					CHANNELS 3 Zrotation Yrotation Xrotation
					End Site
					{
						OFFSET 0.000000 0.000000 0.000000
					}
				}
			}
		}
	}
	JOINT RightUpLeg
	{
		OFFSET 0.103462 1.857831 -10.548510
		CHANNELS 3 Zrotation Yrotation Xrotation
		JOINT RightLeg
		{
			OFFSET 43.500046 -0.000015 0.000008
			CHANNELS 3 Zrotation Yrotation Xrotation
			JOINT RightFoot
			{
				OFFSET 42.372265 -0.000015 0.000004
				CHANNELS 3 Zrotation Yrotation Xrotation
				JOINT RightToe
				{
					OFFSET 17.299995 -0.000004 0.000013
					CHANNELS 3 Zrotation Yrotation Xrotation
					End Site
					{
						OFFSET 0.000000 0.000000 0.000000
					}
				}
			}
		}
	}
	JOINT Spine
	{
		OFFSET 6.901966 -2.603716 -0.000002
		CHANNELS 3 Zrotation Yrotation Xrotation
		JOINT Spine1
		{
			OFFSET 12.588102 -0.000001 0.000005
			CHANNELS 3 Zrotation Yrotation Xrotation
			JOINT Spine2
			{
				OFFSET 12.343201 -0.000023 -0.000011
				CHANNELS 3 Zrotation Yrotation Xrotation
				JOINT Neck
				{
					OFFSET 25.832901 0.000011 0.000007
					CHANNELS 3 Zrotation Yrotation Xrotation
					JOINT Head
					{
						OFFSET 11.766600 -0.000002 0.000002
						CHANNELS 3 Zrotation Yrotation Xrotation
						End Site
						{
							OFFSET 0.000000 0.000000 0.000000
						}
					}
				}
				JOINT LeftShoulder
				{
					OFFSET 19.745907 -1.480350 6.000119
					CHANNELS 3 Zrotation Yrotation Xrotation
					JOINT LeftArm
					{
						OFFSET 11.284122 -0.000013 -0.000023
						CHANNELS 3 Zrotation Yrotation Xrotation
						JOINT LeftForeArm
						{
							OFFSET 33.000057 0.000005 0.000025
							CHANNELS 3 Zrotation Yrotation Xrotation
							JOINT LeftHand
							{
								OFFSET 25.199997 0.000020 0.000019
								CHANNELS 3 Zrotation Yrotation Xrotation
								End Site
								{
									OFFSET 0.000000 0.000000 0.000000
								}
							}
						}
					}
				}
				JOINT RightShoulder
				{
					OFFSET 19.746096 -1.480352 -6.000062
					CHANNELS 3 Zrotation Yrotation Xrotation
					JOINT RightArm
					{
						OFFSET 11.284150 0.000007 -0.000012
						CHANNELS 3 Zrotation Yrotation Xrotation
						JOINT RightForeArm
						{
							OFFSET 33.000092 0.000019 0.000012
							CHANNELS 3 Zrotation Yrotation Xrotation
							JOINT RightHand
							{
								OFFSET 25.199797 0.000118 0.000427
								CHANNELS 3 Zrotation Yrotation Xrotation
								End Site
								{
									OFFSET 0.000000 0.000000 0.000000
								}
							}
						}
					}
				}
			}
		}
	}
}
MOTION
Frames: 14
Frame Time: 0.033333
-317.707397 90.423027 410.247192 101.142008 -26.941703 49.555174 131.840095 -11.948802 145.103066 -52.049996 -3.899606 16.446679 78.994157 -9.256856 7.933801 21.454551 0.003091 -0.000004 120.360214 -11.438396 -150.720541 -47.457148 -0.026697 -13.022827 44.188626 17.331482 11.755303 21.454563 -0.003112 -0.000022 10.218374 1.847995 -4.102205 10.288060 4.053407 -8.028319 9.972501 4.005144 -8.052442 17.680245 2.281980 10.658053 -32.529141 -13.482054 18.804520 29.642055 -84.454435 148.686088 -18.759265 -0.404609 -1.379462 -39.754652 -22.785791 1.960091 5.422104 -29.334587 11.847303 -163.882097 82.868732 17.851073 38.507203 -42.448635 -13.209220 -49.243536 18.091805 -1.961655 3.640259 16.365128 5.135412 
-318.375214 91.341827 410.465393 101.438903 -25.859077 48.867203 133.791357 -8.592600 148.685678 -47.380780 -3.997806 13.040269 79.245863 -6.379670 9.670922 21.454553 0.003083 0.000000 122.282202 -10.159296 -155.373198 -46.472430 1.133733 -14.367479 47.975293 23.937725 22.376391 21.454551 -0.003109 -0.000012 10.057638 1.619321 -4.203036 9.977651 3.595002 -8.254373 9.662476 3.545394 -8.275727 18.564077 2.060207 10.598819 -32.704117 -14.083815 19.073773 34.169896 -85.055649 144.191017 -16.006892 1.487078 -3.802521 -38.617258 -22.356795 1.901431 7.569584 -29.354930 8.020694 -163.910880 83.243033 17.819088 37.858096 -40.606827 -8.989562 -56.758923 17.644887 -2.190912 -0.147660 17.361989 -3.417881 
-319.066986 91.783607 410.757690 101.018996 -24.277586 47.886627 136.286139 -6.129109 152.962797 -43.999788 -3.989604 9.511606 80.605077 -4.116381 9.266986 21.454551 0.003089 -0.000003 123.886135 -9.570213 -159.181889 -49.004968 2.074172 -13.571641 55.578684 22.953976 25.664350 21.454557 -0.003104 -0.000020 10.081311 1.328786 -4.156418 10.045498 3.013437 -8.184216 9.730455 2.964268 -8.202088 18.938323 1.677399 10.543363 -32.142030 -14.252715 18.984733 32.488980 -85.799655 145.846969 -14.042910 3.113248 -3.819795 -37.414209 -21.349797 1.804508 8.505468 -28.165081 7.617847 -167.712864 83.273578 13.975113 37.024574 -38.697782 -3.329987 -63.893974 16.332435 -2.372109 -2.847165 17.204572 -9.131607 
-319.875702 92.176308 410.786896 99.795628 -23.847307 47.207778 137.689305 -5.720093 157.402584 -42.447396 -3.739689 6.917789 81.847058 -2.865475 7.423431 21.454553 0.003088 0.000000 124.007016 -9.876492 -161.144025 -52.487091 2.070330 -11.894426 60.994020 18.000127 20.917186 21.454563 -0.003107 -0.000020 10.059722 1.286891 -3.969150 10.010399 2.912333 -7.814238 9.695074 2.865382 -7.831531 18.783379 1.465874 10.549250 -30.813791 -14.595498 18.920801 31.000951 -86.405445 147.316921 -12.168662 4.705351 -1.608177 -36.792293 -20.619122 1.741388 9.530167 -27.001713 6.887023 -166.202914 83.464119 15.500979 35.471078 -37.674593 2.352674 -70.484205 13.842860 -2.466759 -4.409846 17.535730 -12.411618 
-320.841187 92.323174 410.781799 99.057960 -23.349236 47.459624 138.518449 -5.871907 159.657038 -42.640403 -3.567129 6.472015 82.352574 -3.004449 5.642827 21.454553 0.003097 -0.000003 123.930490 -9.525609 -161.658201 -54.631927 1.104582 -10.585168 63.923877 14.631496 16.769371 21.454555 -0.003105 -0.000016 9.944094 1.181021 -3.962536 9.786125 2.692906 -7.812821 9.470862 2.645966 -7.828804 18.882630 1.790421 10.453190 -29.843398 -15.339212 19.032419 26.169861 -86.897956 152.116017 -11.317361 6.586799 1.336357 -36.470956 -20.748832 1.741858 9.320862 -26.946109 7.378894 -165.895050 83.490060 15.812014 34.311199 -37.230217 7.315511 -76.258461 10.831852 -2.500787 -5.689111 18.358847 -14.027095 
-322.002686 92.133797 410.798187 98.582395 -22.735946 49.033665 138.744078 -6.093595 160.147965 -44.338033 -3.337707 7.536304 82.190528 -3.876374 5.046004 21.454553 0.003104 -0.000002 124.342870 -8.661886 -161.262091 -54.194034 -0.553947 -8.997264 68.150241 11.286331 12.923551 21.454560 -0.003110 -0.000017 9.806888 1.025278 -4.084820 9.519000 2.383044 -8.072894 9.204033 2.334554 -8.087004 19.438362 2.721449 10.171710 -29.709137 -15.901199 19.029189 32.155103 -87.105717 146.160844 -10.762799 8.209799 3.797607 -36.594456 -21.167678 1.772108 8.704896 -26.524319 7.746100 -164.646013 82.397777 17.080090 33.063289 -36.467913 11.656078 -80.960568 7.939949 -2.502401 -7.163659 19.578421 -14.682164 
-323.289703 92.058868 410.781189 97.670763 -22.843426 51.218117 138.394468 -6.863997 160.391133 -46.269112 -2.720315 8.809101 81.608261 -4.794655 4.907777 21.454553 0.003091 0.000002 124.746206 -9.195210 -162.682142 -49.807078 -1.563042 -8.418691 69.090403 9.539400 9.611115 21.454551 -0.003099 -0.000011 9.659534 1.033411 -4.135175 9.222805 2.392986 -8.176351 8.907931 2.343880 -8.190508 19.353382 2.958933 9.672348 -29.116226 -15.858567 18.370294 37.532955 -87.293977 140.805811 -11.164776 11.080686 3.701365 -37.545714 -21.563662 1.821792 8.747642 -26.622155 6.970665 -159.969027 82.166390 21.818107 32.015562 -36.729530 13.795319 -84.124250 5.785119 -2.490651 -8.067379 18.594951 -16.931757 
-324.510010 91.616966 410.896912 96.376162 -22.535495 53.573589 138.588595 -7.332112 161.878967 -48.300670 -2.928526 9.146116 82.358401 -4.884930 5.604910 21.454553 0.003089 -0.000000 125.644362 -10.566701 -168.245181 -44.353630 -1.152298 -7.109757 71.222604 7.149909 6.133308 21.454562 -0.003114 -0.000019 9.669024 1.074072 -4.121887 9.239342 2.473704 -8.146494 8.924411 2.424760 -8.161136 19.291436 3.109441 9.440209 -28.708494 -16.255801 18.243910 46.770950 -87.511082 131.602050 -11.935535 14.546749 2.664384 -38.629617 -22.060874 1.882367 8.606104 -26.613272 7.170161 -154.903062 82.450205 26.940932 31.143579 -37.057137 14.756936 -86.441440 4.402495 -2.496451 -9.610812 16.236739 -23.511277 
-325.663788 90.910309 411.174988 95.139795 -22.252944 55.761039 138.670722 -7.796500 162.596792 -50.692756 -2.901804 9.312517 83.656669 -4.624567 7.490639 21.454553 0.003105 -0.000002 125.870947 -11.956506 -174.568461 -41.375797 -0.309102 -1.541226 71.473640 3.079499 6.158154 21.454560 -0.003103 -0.000016 9.679675 1.163886 -3.965661 9.258671 2.641216 -7.827316 8.943428 2.594172 -7.842980 19.493003 3.065636 9.334101 -28.978006 -16.117346 18.109634 57.036871 -87.673503 121.366164 -12.999950 18.381603 1.780457 -39.749560 -22.323691 1.929544 7.235143 -25.695231 8.459492 -157.844019 82.392510 23.967059 30.821420 -35.863947 16.271993 -87.891168 3.498518 -2.497598 -11.225143 12.652281 -29.114607 
-326.751099 90.270447 411.462006 93.931514 -21.618172 58.224692 138.698466 -7.924193 163.658532 -53.148062 -2.638853 9.660166 84.030001 -4.642910 8.631860 21.454551 0.003092 0.000002 125.891315 -12.352494 -177.207892 -41.567753 0.247574 1.506893 66.781642 0.509610 4.520862 21.454560 -0.003119 -0.000015 9.799156 1.179302 -3.791753 9.501004 2.665855 -7.475614 9.185465 2.620919 -7.491451 19.095129 3.934058 8.883004 -28.225779 -16.607586 17.764385 61.317265 -87.986176 117.082092 -14.692451 21.863377 1.711146 -40.409575 -21.840995 1.915826 7.127350 -24.866455 9.173772 -159.042977 82.159027 22.756129 29.245593 -34.951782 18.025086 -87.923885 3.618352 -2.507432 -11.404561 10.769079 -33.725060 
-327.702911 89.592461 411.807587 92.878463 -20.547147 61.289910 138.405150 -7.397911 166.121812 -56.094254 -2.311803 10.485601 83.983098 -5.663683 6.692910 21.454551 0.003086 0.000001 126.507671 -11.422609 -174.116794 -43.151790 -0.656662 0.804887 66.121087 -1.097130 -1.142297 21.454555 -0.003112 -0.000019 9.942728 1.157794 -3.652704 9.792786 2.620500 -7.195916 9.477053 2.577245 -7.211488 19.075455 4.305873 8.331250 -26.730222 -16.016715 16.631565 78.095290 -87.894481 100.354112 -16.233785 24.604421 2.543008 -40.116969 -21.025822 1.854325 7.657340 -23.752357 10.446774 -157.600099 82.509177 24.210919 27.568578 -34.928392 19.499562 -86.483930 4.704910 -2.519439 -11.445569 11.803873 -32.863131 
-328.560394 89.428619 411.895691 91.952262 -19.922188 63.703583 137.809967 -7.426100 168.664432 -58.089912 -1.985581 11.693934 82.850748 -7.307233 3.113698 21.454550 0.003091 0.000002 127.669896 -10.548093 -170.018913 -43.321305 -1.491544 0.417841 67.193741 -1.882199 -4.120984 21.454555 -0.003107 -0.000016 10.046267 1.078300 -3.304356 10.012678 2.438476 -6.504218 9.696492 2.399370 -6.518738 19.443988 5.434739 7.597744 -26.136947 -15.991776 15.768062 85.542150 -86.939764 93.006235 -16.950583 27.413342 3.118919 -39.447665 -20.353873 1.792373 8.226726 -22.286431 10.802918 -158.136993 82.360641 23.669930 25.873689 -34.333845 20.333483 -83.765959 6.470321 -2.522703 -11.725550 15.317338 -29.599007 
-329.206512 90.377060 411.855011 91.468671 -20.718928 64.297386 137.063605 -8.366814 170.810354 -57.347791 -1.988640 12.732080 80.403949 -9.091240 -1.070330 21.454553 0.003092 0.000004 128.166287 -11.277301 -168.574519 -40.924393 -2.535535 -0.566515 64.029970 -1.132523 -3.761651 21.454560 -0.003117 -0.000014 9.904935 0.942916 -2.872267 9.746215 2.124309 -5.655711 9.429573 2.090315 -5.668371 19.586218 6.614205 7.460317 -25.637130 -16.492877 15.805228 93.414940 -87.862652 85.064235 -17.629710 30.439551 3.571399 -38.645135 -20.368859 1.772236 7.632453 -23.130395 11.501805 -165.260047 82.507756 16.457988 23.992826 -33.795127 19.878798 -80.830801 8.492155 -2.535256 -10.531260 18.879572 -25.693259 
-329.743988 91.932892 411.795013 91.475344 -21.788438 64.055782 137.147439 -9.278494 171.746200 -54.407948 -1.864029 13.557747 77.375422 -10.718715 -4.410409 21.454553 0.003092 0.000004 128.989584 -12.461392 -171.679564 -36.914720 -2.153413 -0.252143 59.201245 0.186492 0.079913 21.454558 -0.003103 -0.000018 9.737323 0.725369 -2.520811 9.426883 1.653574 -4.974533 9.109941 1.623696 -4.984393 19.833191 6.996824 7.825664 -25.865791 -16.348937 16.179830 130.377260 -88.648240 48.028080 -16.790145 32.845143 3.634418 -38.223969 -20.242191 1.753075 7.596565 -23.625735 11.091117 -172.004886 82.978951 9.635005 22.363194 -33.036372 19.155414 -78.599467 9.609438 -2.516293 -9.225705 18.699279 -23.717625 
